# xmcd CD database file
#
# Track frame offsets:
#	150
#	24362
#	44142
#
# Disc length: 909 seconds
#
# Revision: 2
# Processed by: cddbd v1.5.2PL0 Copyright (c) Steve Scherf et al.
# Submitted via: CDex 1.70beta2
#
DISCID=20038b03
DTITLE=谷村有美 - 虹のふもとで
DYEAR=1998
DGENRE=JPop
TTITLE0=虹のふもとで
TTITLE1=Instrumental part Ⅱ
TTITLE2=虹のふもとで(オリジナル・カラオケ)
EXTD=YEAR: 1998
EXTT0=
EXTT1=
EXTT2=
PLAYORDER=
